HIERARCHY
ROOT Root
{
  OFFSET 0.0 0.0 0.0
  CHANNELS 6 Xposition Yposition Zposition Zrotation Yrotation Xrotation
  JOINT Hips
  {
    OFFSET 0.0 100.0 0.0
    CHANNELS 6 Xposition Yposition Zposition Zrotation Yrotation Xrotation
    JOINT Spine1
    {
      OFFSET 5.003913 -0.037094 -0.013727
      CHANNELS 3 Zrotation Yrotation Xrotation
      JOINT Spine2
      {
        OFFSET 7.125363 -1e-06 0.0
        CHANNELS 3 Zrotation Yrotation Xrotation
        JOINT Chest
        {
          OFFSET 7.594027 1e-06 0.0
          CHANNELS 3 Zrotation Yrotation Xrotation
          JOINT Neck1
          {
            OFFSET 26.313086 -0.460272 -0.181672
            CHANNELS 3 Zrotation Yrotation Xrotation
            JOINT Neck2
            {
              OFFSET 8.045911 0.0 0.0
              CHANNELS 3 Zrotation Yrotation Xrotation
              JOINT Head
              {
                OFFSET 6.432774 0.0 0.0
                CHANNELS 3 Zrotation Yrotation Xrotation
                JOINT HeadEnd
                {
                  OFFSET 16.169773 0.06451 0.00362
                  CHANNELS 3 Zrotation Yrotation Xrotation
                }
                JOINT Jaw
                {
                  OFFSET 0.108741 3.12938 0.002639
                  CHANNELS 3 Zrotation Yrotation Xrotation
                }
                JOINT LeftEye
                {
                  OFFSET 4.45173 8.166359 3.206392
                  CHANNELS 3 Zrotation Yrotation Xrotation
                }
                JOINT RightEye
                {
                  OFFSET 4.436895 8.135758 -3.222429
                  CHANNELS 3 Zrotation Yrotation Xrotation
                }
              }
            }
          }
          JOINT LeftShoulder
          {
            OFFSET 23.218927 5.195579 1.621656
            CHANNELS 3 Zrotation Yrotation Xrotation
            JOINT LeftArm
            {
              OFFSET 15.902118 2e-06 -2e-06
              CHANNELS 3 Zrotation Yrotation Xrotation
              JOINT LeftForeArm
              {
                OFFSET 28.739307 0.0 -1e-06
                CHANNELS 3 Zrotation Yrotation Xrotation
                JOINT LeftHand
                {
                  OFFSET 27.093981 -4e-06 0.0
                  CHANNELS 3 Zrotation Yrotation Xrotation
                  JOINT LeftHandThumb1
                  {
                    OFFSET 2.276781 3.380274 0.83384
                    CHANNELS 3 Zrotation Yrotation Xrotation
                    JOINT LeftHandThumb2
                    {
                      OFFSET 4.705309 -1e-06 -1e-06
                      CHANNELS 3 Zrotation Yrotation Xrotation
                      JOINT LeftHandThumb3
                      {
                        OFFSET 2.798515 0.0 3e-06
                        CHANNELS 3 Zrotation Yrotation Xrotation
                        JOINT LeftHandThumbEnd
                        {
                          OFFSET 3.180793 4e-06 -4e-06
                          CHANNELS 3 Zrotation Yrotation Xrotation
                        }
                      }
                    }
                  }
                  JOINT LeftHandIndex1
                  {
                    OFFSET 3.247786 2.352677 0.137192
                    CHANNELS 3 Zrotation Yrotation Xrotation
                    JOINT LeftHandIndex2
                    {
                      OFFSET 6.367095 1e-06 0.0
                      CHANNELS 3 Zrotation Yrotation Xrotation
                      JOINT LeftHandIndex3
                      {
                        OFFSET 3.662364 0.0 0.0
                        CHANNELS 3 Zrotation Yrotation Xrotation
                        JOINT LeftHandIndex4
                        {
                          OFFSET 2.329242 4e-06 -4e-06
                          CHANNELS 3 Zrotation Yrotation Xrotation
                          JOINT LeftHandIndexEnd
                          {
                            OFFSET 2.767823 1e-06 0.0
                            CHANNELS 3 Zrotation Yrotation Xrotation
                          }
                        }
                      }
                    }
                  }
                  JOINT LeftHandMiddle1
                  {
                    OFFSET 3.163612 0.945023 -0.406112
                    CHANNELS 3 Zrotation Yrotation Xrotation
                    JOINT LeftHandMiddle2
                    {
                      OFFSET 6.276789 3e-06 0.0
                      CHANNELS 3 Zrotation Yrotation Xrotation
                      JOINT LeftHandMiddle3
                      {
                        OFFSET 4.35652 -1e-06 4e-06
                        CHANNELS 3 Zrotation Yrotation Xrotation
                        JOINT LeftHandMiddle4
                        {
                          OFFSET 2.996877 0.0 8e-06
                          CHANNELS 3 Zrotation Yrotation Xrotation
                          JOINT LeftHandMiddleEnd
                          {
                            OFFSET 2.323256 3e-06 -4e-06
                            CHANNELS 3 Zrotation Yrotation Xrotation
                          }
                        }
                      }
                    }
                  }
                  JOINT LeftHandRing1
                  {
                    OFFSET 2.882606 -0.309162 0.107445
                    CHANNELS 3 Zrotation Yrotation Xrotation
                    JOINT LeftHandRing2
                    {
                      OFFSET 6.033198 0.0 4e-06
                      CHANNELS 3 Zrotation Yrotation Xrotation
                      JOINT LeftHandRing3
                      {
                        OFFSET 4.350578 3e-06 0.0
                        CHANNELS 3 Zrotation Yrotation Xrotation
                        JOINT LeftHandRing4
                        {
                          OFFSET 2.651321 2e-06 -7e-06
                          CHANNELS 3 Zrotation Yrotation Xrotation
                          JOINT LeftHandRingEnd
                          {
                            OFFSET 1.937663 1e-06 -4e-06
                            CHANNELS 3 Zrotation Yrotation Xrotation
                          }
                        }
                      }
                    }
                  }
                  JOINT LeftHandPinky1
                  {
                    OFFSET 2.865315 -1.525436 0.575687
                    CHANNELS 3 Zrotation Yrotation Xrotation
                    JOINT LeftHandPinky2
                    {
                      OFFSET 5.54936 1e-06 -8e-06
                      CHANNELS 3 Zrotation Yrotation Xrotation
                      JOINT LeftHandPinky3
                      {
                        OFFSET 3.070974 0.0 -4e-06
                        CHANNELS 3 Zrotation Yrotation Xrotation
                        JOINT LeftHandPinky4
                        {
                          OFFSET 1.549672 1e-06 0.0
                          CHANNELS 3 Zrotation Yrotation Xrotation
                          JOINT LeftHandPinkyEnd
                          {
                            OFFSET 1.952123 0.0 0.0
                            CHANNELS 3 Zrotation Yrotation Xrotation
                          }
                        }
                      }
                    }
                  }
                }
              }
            }
          }
          JOINT RightShoulder
          {
            OFFSET 23.161716 5.296122 -1.380114
            CHANNELS 3 Zrotation Yrotation Xrotation
            JOINT RightArm
            {
              OFFSET -16.027195 -2e-06 1.1e-05
              CHANNELS 3 Zrotation Yrotation Xrotation
              JOINT RightForeArm
              {
                OFFSET -28.736639 4e-06 2e-06
                CHANNELS 3 Zrotation Yrotation Xrotation
                JOINT RightHand
                {
                  OFFSET -27.133619 6e-06 0.0
                  CHANNELS 3 Zrotation Yrotation Xrotation
                  JOINT RightHandThumb1
                  {
                    OFFSET -2.274328 -3.351035 -0.83067
                    CHANNELS 3 Zrotation Yrotation Xrotation
                    JOINT RightHandThumb2
                    {
                      OFFSET -4.703594 -3e-06 2e-06
                      CHANNELS 3 Zrotation Yrotation Xrotation
                      JOINT RightHandThumb3
                      {
                        OFFSET -2.794935 -4e-06 -3e-06
                        CHANNELS 3 Zrotation Yrotation Xrotation
                        JOINT RightHandThumbEnd
                        {
                          OFFSET -3.183852 4e-06 1e-06
                          CHANNELS 3 Zrotation Yrotation Xrotation
                        }
                      }
                    }
                  }
                  JOINT RightHandIndex1
                  {
                    OFFSET -3.253496 -2.33755 -0.127667
                    CHANNELS 3 Zrotation Yrotation Xrotation
                    JOINT RightHandIndex2
                    {
                      OFFSET -6.344434 0.0 0.0
                      CHANNELS 3 Zrotation Yrotation Xrotation
                      JOINT RightHandIndex3
                      {
                        OFFSET -3.654871 0.0 -8e-06
                        CHANNELS 3 Zrotation Yrotation Xrotation
                        JOINT RightHandIndex4
                        {
                          OFFSET -2.327586 -1e-06 0.0
                          CHANNELS 3 Zrotation Yrotation Xrotation
                          JOINT RightHandIndexEnd
                          {
                            OFFSET -2.770001 3e-06 8e-06
                            CHANNELS 3 Zrotation Yrotation Xrotation
                          }
                        }
                      }
                    }
                  }
                  JOINT RightHandMiddle1
                  {
                    OFFSET -3.168223 -0.944764 0.411762
                    CHANNELS 3 Zrotation Yrotation Xrotation
                    JOINT RightHandMiddle2
                    {
                      OFFSET -6.266691 -1e-06 -4e-06
                      CHANNELS 3 Zrotation Yrotation Xrotation
                      JOINT RightHandMiddle3
                      {
                        OFFSET -4.348901 0.0 0.0
                        CHANNELS 3 Zrotation Yrotation Xrotation
                        JOINT RightHandMiddle4
                        {
                          OFFSET -3.00024 2e-06 -4e-06
                          CHANNELS 3 Zrotation Yrotation Xrotation
                          JOINT RightHandMiddleEnd
                          {
                            OFFSET -2.321477 -4e-06 -4e-06
                            CHANNELS 3 Zrotation Yrotation Xrotation
                          }
                        }
                      }
                    }
                  }
                  JOINT RightHandRing1
                  {
                    OFFSET -2.885654 0.293261 -0.119232
                    CHANNELS 3 Zrotation Yrotation Xrotation
                    JOINT RightHandRing2
                    {
                      OFFSET -6.032835 -1e-06 -4e-06
                      CHANNELS 3 Zrotation Yrotation Xrotation
                      JOINT RightHandRing3
                      {
                        OFFSET -4.33881 0.0 -4e-06
                        CHANNELS 3 Zrotation Yrotation Xrotation
                        JOINT RightHandRing4
                        {
                          OFFSET -2.654903 -4e-06 -4e-06
                          CHANNELS 3 Zrotation Yrotation Xrotation
                          JOINT RightHandRingEnd
                          {
                            OFFSET -1.935122 0.0 4e-06
                            CHANNELS 3 Zrotation Yrotation Xrotation
                          }
                        }
                      }
                    }
                  }
                  JOINT RightHandPinky1
                  {
                    OFFSET -2.866241 1.503904 -0.60527
                    CHANNELS 3 Zrotation Yrotation Xrotation
                    JOINT RightHandPinky2
                    {
                      OFFSET -5.553177 -2e-06 0.0
                      CHANNELS 3 Zrotation Yrotation Xrotation
                      JOINT RightHandPinky3
                      {
                        OFFSET -3.062664 -1e-06 -4e-06
                        CHANNELS 3 Zrotation Yrotation Xrotation
                        JOINT RightHandPinky4
                        {
                          OFFSET -1.546529 2e-06 4e-06
                          CHANNELS 3 Zrotation Yrotation Xrotation
                          JOINT RightHandPinkyEnd
                          {
                            OFFSET -1.952341 0.0 -4e-06
                            CHANNELS 3 Zrotation Yrotation Xrotation
                          }
                        }
                      }
                    }
                  }
                }
              }
            }
          }
        }
      }
    }
    JOINT LeftLeg
    {
      OFFSET -8.443107 2.567604 10.043214
      CHANNELS 3 Zrotation Yrotation Xrotation
      JOINT LeftShin
      {
        OFFSET 43.229198 1e-06 -1e-06
        CHANNELS 3 Zrotation Yrotation Xrotation
        JOINT LeftFoot
        {
          OFFSET 42.298611 1e-06 1e-06
          CHANNELS 3 Zrotation Yrotation Xrotation
          JOINT LeftToeBase
          {
            OFFSET 14.165858 1e-06 0.0
            CHANNELS 3 Zrotation Yrotation Xrotation
            JOINT LeftToeEnd
            {
              OFFSET 6.7141 -0.234461 0.0
              CHANNELS 3 Zrotation Yrotation Xrotation
            }
          }
        }
      }
    }
    JOINT RightLeg
    {
      OFFSET -8.303923 2.592729 -10.047278
      CHANNELS 3 Zrotation Yrotation Xrotation
      JOINT RightShin
      {
        OFFSET -43.369682 0.0 1e-06
        CHANNELS 3 Zrotation Yrotation Xrotation
        JOINT RightFoot
        {
          OFFSET -42.260784 4e-06 2e-06
          CHANNELS 3 Zrotation Yrotation Xrotation
          JOINT RightToeBase
          {
            OFFSET -14.222245 -2e-06 -1e-06
            CHANNELS 3 Zrotation Yrotation Xrotation
            JOINT RightToeEnd
            {
              OFFSET -6.660062 0.232574 -2e-06
              CHANNELS 3 Zrotation Yrotation Xrotation
            }
          }
        }
      }
    }
  }
}
MOTION
Frames: 4
Frame Time: 0.03333333333333333
0.0 0.0 0.0 0.0 -0.0 0.0 -0.042139 100.089439 1.300622 90.442024 2.206719 90.939384 -2.765952 0.054961 0.101258 -11.857919 -0.681513 0.125485 17.412647 -0.140373 -2.619473 18.113174 0.992137 2.405512 -2.508759 -0.284128 1.921763 -28.981653 0.58136 0.689233 6e-06 -0.0 -0.0 0.035346 0.010743 0.037841 0.024645 0.019746 0.026061 0.03804 -0.000499 0.060888 -108.48365 -81.332626 122.775749 18.483833 -31.843544 -37.308613 55.608269 0.74824 -0.735202 -6.181098 13.520936 -100.070572 17.636621 -26.322718 52.411182 -19.46666 -14.395594 29.410389 1e-06 -8.774822 1e-06 16.280876 -17.266453 5.82822 -0.609772 -1.795653 -3.889324 -4.807091 -11.046811 -2.937854 2e-06 -20.976019 0.0 -5.019971 -25.033558 -4.031882 8e-06 1e-06 1e-06 -10.634531 -5.686972 -3.565587 10.573272 -17.922947 -3.113903 6e-06 -13.821209 -2e-06 -0.501776 -31.181498 -4.02702 -11.022695 -59.3564 6.502976 -13.982709 -7.150198 -2.875041 13.772727 -8.401489 -3.218242 0.347737 -34.211544 0.771646 -0.963031 -17.733368 2.621018 1e-06 -0.0 -0.0 -17.346418 -20.095219 -4.20178 21.757557 -1.638373 3.866426 -1e-06 -6.338823 -1e-06 -1.69759 -22.591743 -6.194005 -2e-06 -4e-06 -1e-06 34.024628 -78.926125 163.107315 20.356121 -25.624556 -50.85218 60.233368 -2.026392 0.563116 -3.537099 23.260029 -82.568947 22.182121 -20.375898 49.933331 -16.701815 -16.74353 28.476536 -2e-06 -12.690607 -3e-06 17.772779 -18.042372 2.721071 -0.105922 -1.513857 -4.275881 -5.039043 -5.612875 -2.953557 5e-06 -11.020523 -3e-06 -6.111301 -15.895332 -3.840472 -0.0 1e-06 -3e-06 -10.283372 -5.680289 -4.34184 11.028295 -11.302405 -2.372634 -1.38427 -14.238583 -6.320122 -0.62544 -26.924194 -3.827604 -4.984018 -50.881798 -2.694129 -13.708527 -7.363477 -3.720942 18.14115 -14.052744 -3.242675 5e-06 -18.787273 -2e-06 -0.429712 -8.456047 2.555504 2e-06 -0.0 -0.0 -15.923536 -20.09449 -5.473588 30.419218 -7.190824 1.735924 3e-06 -8.162925 -0.0 -1.861904 -22.861473 -6.167945 0.0 -3e-06 -1e-06 177.733521 -3.884891 -9.577714 13.196596 -0.060788 0.072807 -77.342285 1.957381 -3.775125 -6.381847 1.506506 2.100624 -0.999999 -0.0 -0.0 -2.504288 -5.00249 -13.947315 14.933584 0.028051 -0.112775 -78.156548 -1.873001 -6.037082 -6.370292 0.667658 1.630609 -1.000002 1e-06 0.0 
0.0 0.0 0.0 0.0 -0.0 0.0 0.055861 100.099144 1.190565 90.447174 1.951848 90.857201 -2.677542 0.052966 0.10344 -11.838588 -0.658407 0.130293 17.385086 -0.141791 -2.652628 17.81283 0.970875 2.389956 -2.51308 -0.294404 1.970063 -29.555403 0.517261 0.742926 7e-06 -0.0 -0.0 0.033885 0.019027 0.059194 0.030428 0.021621 0.045437 0.040407 0.014363 0.084841 -108.399467 -81.246155 122.813316 17.818113 -32.492092 -36.980381 56.074928 0.556628 -0.721585 -6.522588 13.12592 -98.045799 17.636625 -26.322737 52.411213 -19.466663 -14.395597 29.410395 -1e-06 -8.774821 -1e-06 16.281363 -17.216118 5.817522 -0.609775 -1.795652 -3.889326 -4.807084 -11.046807 -2.937854 5e-06 -20.976019 2e-06 -5.019966 -25.033558 -4.031882 5e-06 2e-06 -1e-06 -10.634531 -5.686969 -3.565587 10.573277 -17.922951 -3.113901 4e-06 -13.821206 -1e-06 -0.501777 -31.181501 -4.027017 -11.07027 -59.429615 6.546924 -13.982718 -7.150198 -2.875042 13.772733 -8.401491 -3.218243 0.347739 -34.211555 0.77165 -0.963031 -17.73337 2.621021 -1e-06 1e-06 0.0 -17.346415 -20.095215 -4.201784 21.757559 -1.638377 3.866425 1e-06 -6.338824 -1e-06 -1.697587 -22.591745 -6.194008 -1e-06 -4e-06 -2e-06 35.591671 -78.893654 161.694717 19.566996 -26.674952 -49.827892 61.73246 -2.090807 0.475575 -4.587562 23.400269 -81.518494 22.182114 -20.375904 49.933323 -16.701817 -16.74353 28.476534 -3e-06 -12.690601 -1e-06 17.73847 -17.993858 2.739487 -0.105921 -1.513858 -4.275882 -5.03904 -5.612872 -2.953556 7e-06 -11.02052 -2e-06 -6.111295 -15.89533 -3.840471 -1e-06 -0.0 -2e-06 -10.283369 -5.680288 -4.341839 11.028297 -11.302407 -2.372634 -1.384269 -14.238581 -6.32012 -0.625434 -26.924191 -3.827598 -4.986175 -50.938679 -2.693505 -13.708525 -7.363476 -3.720937 18.141153 -14.052746 -3.242676 6e-06 -18.787271 -0.0 -0.429711 -8.456044 2.555505 2e-06 -0.0 -1e-06 -15.923532 -20.094482 -5.473585 30.41921 -7.190831 1.735922 4e-06 -8.162927 -1e-06 -1.861901 -22.861473 -6.16794 1e-06 -4e-06 -1e-06 177.334091 -3.806968 -9.541112 13.337668 -0.058774 0.05892 -77.339745 1.821471 -3.724472 -6.424248 1.50776 2.096611 -1.0 -0.0 0.0 -2.899605 -5.090727 -13.886684 15.00869 0.022357 -0.101501 -78.077454 -1.809133 -6.073673 -6.40097 0.678896 1.630821 -1.000002 1e-06 0.0 
0.0 0.0 0.0 0.0 -0.0 0.0 0.150309 100.108589 1.105597 90.457382 1.687541 90.815781 -2.600162 0.040569 0.093105 -11.83855 -0.648358 0.126985 17.358068 -0.149603 -2.687386 17.5205 0.961585 2.378718 -2.519571 -0.306687 2.017036 -30.177528 0.415194 0.82355 6e-06 0.0 -0.0 0.034053 0.027247 0.077365 0.032737 0.023339 0.061609 0.037082 0.029377 0.105425 -108.459351 -81.130562 122.996002 17.173288 -33.147049 -36.671452 56.659637 0.346884 -0.713709 -6.942093 12.794099 -95.721428 17.636629 -26.322735 52.411198 -19.466658 -14.395598 29.410389 1e-06 -8.774821 -2e-06 16.284662 -17.190434 5.797823 -0.609778 -1.795654 -3.889327 -4.807087 -11.046808 -2.937851 3e-06 -20.976015 2e-06 -5.019972 -25.033554 -4.031877 7e-06 0.0 -1e-06 -10.634531 -5.686967 -3.565587 10.573271 -17.922949 -3.113898 3e-06 -13.821206 0.0 -0.501777 -31.181501 -4.027014 -11.108604 -59.465519 6.586178 -13.982711 -7.150197 -2.875041 13.772727 -8.401491 -3.218242 0.347732 -34.211544 0.771656 -0.963032 -17.733366 2.621019 1e-06 -1e-06 -0.0 -17.346416 -20.095213 -4.201781 21.757557 -1.638374 3.866427 0.0 -6.338825 2e-06 -1.697589 -22.591743 -6.194004 1e-06 -6e-06 -1e-06 37.305653 -78.786476 160.157181 18.591091 -27.914177 -48.446743 63.267864 -2.062696 0.408689 -5.86586 23.619226 -80.549026 22.182116 -20.3759 49.933315 -16.701809 -16.743528 28.476522 -0.0 -12.690601 -1e-06 17.679226 -17.951506 2.734394 -0.105919 -1.513855 -4.275881 -5.039042 -5.612874 -2.953556 5e-06 -11.02052 -2e-06 -6.1113 -15.89533 -3.840471 0.0 0.0 -1e-06 -10.283371 -5.680288 -4.341839 11.028295 -11.302402 -2.372632 -1.38427 -14.238585 -6.320119 -0.625443 -26.924191 -3.827596 -4.960402 -50.843689 -2.704158 -13.708527 -7.363478 -3.720936 18.14115 -14.052737 -3.242676 5e-06 -18.78727 0.0 -0.429709 -8.456043 2.555504 1e-06 -0.0 0.0 -15.923536 -20.094482 -5.473583 30.41921 -7.190823 1.735926 1e-06 -8.162925 1e-06 -1.861905 -22.861469 -6.16794 -1e-06 -3e-06 -1e-06 176.932983 -3.726381 -9.476813 13.464373 -0.057078 0.039757 -77.333061 1.687881 -3.66531 -6.444304 1.503276 2.091515 -0.999999 -1e-06 0.0 -3.2789 -5.185831 -13.892306 15.078737 0.015767 -0.096327 -78.016556 -1.703153 -6.087825 -6.405108 0.687663 1.631331 -1.000002 0.0 0.0 
0.0 0.0 0.0 0.0 -0.0 0.0 0.241037 100.116226 1.04711 90.473923 1.432061 90.799843 -2.550009 0.014192 0.075176 -11.844431 -0.654503 0.111784 17.325661 -0.163614 -2.715252 17.249666 0.945957 2.38823 -2.537961 -0.307371 2.037212 -30.741493 0.311333 0.940499 6e-06 0.0 0.0 0.032675 0.031874 0.080717 0.026767 0.022716 0.063481 0.027912 0.039412 0.110521 -108.751488 -80.970802 123.428963 16.628704 -33.797073 -36.463539 57.332718 0.154171 -0.731604 -7.416029 12.606586 -93.402786 17.636635 -26.322725 52.411182 -19.466656 -14.395598 29.410381 1e-06 -8.774822 -2e-06 16.282461 -17.187836 5.774213 -0.609776 -1.795653 -3.889327 -4.807087 -11.046805 -2.93785 4e-06 -20.976011 2e-06 -5.019972 -25.033546 -4.031877 6e-06 -0.0 -2e-06 -10.634535 -5.686969 -3.565588 10.573275 -17.922947 -3.1139 3e-06 -13.821205 -1e-06 -0.501777 -31.181501 -4.027013 -11.128621 -59.480278 6.611608 -13.982714 -7.150197 -2.875043 13.772728 -8.401489 -3.218239 0.347733 -34.21154 0.771658 -0.963031 -17.733366 2.621022 1e-06 -0.0 -0.0 -17.346416 -20.095211 -4.201783 21.757557 -1.638376 3.866432 0.0 -6.338824 3e-06 -1.69759 -22.591742 -6.194006 -0.0 -4e-06 -1e-06 38.880161 -78.60553 158.733994 17.406549 -29.321405 -46.788231 64.789192 -2.000575 0.365878 -7.455712 23.968796 -79.605095 22.182119 -20.375895 49.933308 -16.701809 -16.743521 28.476521 -0.0 -12.690601 -2e-06 17.580568 -17.90892 2.719061 -0.10592 -1.513856 -4.275878 -5.039041 -5.612873 -2.953558 4e-06 -11.02052 -1e-06 -6.111296 -15.895332 -3.840469 -1e-06 0.0 -2e-06 -10.283369 -5.680288 -4.34184 11.028291 -11.302406 -2.372632 -1.384267 -14.238581 -6.320123 -0.625438 -26.924192 -3.827602 -4.905029 -50.631496 -2.732519 -13.708525 -7.363475 -3.720937 18.141148 -14.052739 -3.242672 6e-06 -18.787271 -1e-06 -0.429711 -8.456043 2.555503 1e-06 -0.0 -0.0 -15.923534 -20.094482 -5.473585 30.41921 -7.190828 1.73593 2e-06 -8.162922 -1e-06 -1.861902 -22.861469 -6.167942 0.0 -3e-06 -1e-06 176.561783 -3.648926 -9.415853 13.578935 -0.054583 0.02511 -77.333794 1.589065 -3.620677 -6.462626 1.489255 2.08644 -0.999999 -0.0 -0.0 -3.630096 -5.279383 -13.920329 15.155066 0.008088 -0.101617 -77.98304 -1.60168 -6.085758 -6.390959 0.690423 1.631887 -1.000001 1e-06 0.0 
